<?xml version="1.0" encoding="UTF-8"?>
<svg width="34px" height="34px" viewBox="0 0 34 34" version="1.1" xmlns="http://www.w3.org/2000/svg" xmlns:xlink="http://www.w3.org/1999/xlink">
    <title>Combined Shape</title>
    <g id="Page-1" stroke="none" stroke-width="1" fill="none" fill-rule="evenodd">
        <g id="IconTemplate@2x" transform="translate(-3.000000, -3.000000)" fill="#FFFFFF">
            <path d="M12.9735982,3 L27.3927246,3.00143258 C27.5121535,3.00239337 27.6289432,3.00384316 27.7432126,3.00579915 L27.7432126,3.00579915 L28.3995354,3.02374731 C30.4928015,3.10474063 31.6729828,3.4019845 32.8905588,4.05315127 C34.205568,4.75642589 35.2435741,5.79443196 35.9468487,7.10944118 C36.5980155,8.32701717 36.8952594,9.50719854 36.9762527,11.6004646 L36.9762527,11.6004646 L36.9942008,12.2567874 L37,12.9735982 L37,27.0264018 L36.9942008,27.7432126 L36.9762527,28.3995354 C36.8952594,30.4928015 36.5980155,31.6729828 35.9468487,32.8905588 C35.2435741,34.205568 34.205568,35.2435741 32.8905588,35.9468487 C31.6729828,36.5980155 30.4928015,36.8952594 28.3995354,36.9762527 L28.3995354,36.9762527 L27.7432126,36.9942008 L27.0264018,37 L12.9735982,37 L12.2567874,36.9942008 L11.6004646,36.9762527 C9.50719854,36.8952594 8.32701717,36.5980155 7.10944118,35.9468487 C5.79443196,35.2435741 4.75642589,34.205568 4.05315127,32.8905588 C3.4019845,31.6729828 3.10474063,30.4928015 3.02374731,28.3995354 L3.02374731,28.3995354 L3.00579915,27.7432126 L3,27.0264018 L3.00143258,12.6072754 C3.00239337,12.4878465 3.00384316,12.3710568 3.00579915,12.2567874 L3.00579915,12.2567874 L3.02374731,11.6004646 C3.10474063,9.50719854 3.4019845,8.32701717 4.05315127,7.10944118 C4.75642589,5.79443196 5.79443196,4.75642589 7.10944118,4.05315127 C8.32701717,3.4019845 9.50719854,3.10474063 11.6004646,3.02374731 L11.6004646,3.02374731 L12.2567874,3.00579915 L12.9735982,3 Z M27.0264018,5 L12.6450691,5.00111484 C12.5382558,5.00186245 12.4340996,5.00299047 12.3324821,5.00451207 L12.3324821,5.00451207 L11.7522959,5.0184701 L11.2273627,5.04250681 C9.89616489,5.12060537 9.09377677,5.31295896 8.33576102,5.67356015 L8.33576102,5.67356015 L8.0526389,5.81677766 C7.08616663,6.33365269 6.33365269,7.08616663 5.81677766,8.0526389 L5.81677766,8.0526389 L5.67356015,8.33576102 C5.31295896,9.09377677 5.12060537,9.89616489 5.04250681,11.2273627 L5.04250681,11.2273627 L5.0184701,11.7522959 L5.00451207,12.3324821 C5.00146887,12.5357171 5,12.7491071 5,12.9735982 L5,12.9735982 L5,27.0264018 L5.00451207,27.6675179 L5.0184701,28.2477041 L5.04250681,28.7726373 C5.12060537,30.1038351 5.31295896,30.9062232 5.67356015,31.664239 L5.67356015,31.664239 L5.81677766,31.9473611 C6.33365269,32.9138334 7.08616663,33.6663473 8.0526389,34.1832223 L8.0526389,34.1832223 L8.33576102,34.3264398 C9.09377677,34.687041 9.89616489,34.8793946 11.2273627,34.9574932 L11.2273627,34.9574932 L11.7522959,34.9815299 L12.3324821,34.9954879 L12.9735982,35 L27.0264018,35 L27.6675179,34.9954879 L28.2477041,34.9815299 L28.7726373,34.9574932 C30.1038351,34.8793946 30.9062232,34.687041 31.664239,34.3264398 L31.664239,34.3264398 L31.9473611,34.1832223 C32.9138334,33.6663473 33.6663473,32.9138334 34.1832223,31.9473611 L34.1832223,31.9473611 L34.3264398,31.664239 C34.687041,30.9062232 34.8793946,30.1038351 34.9574932,28.7726373 L34.9574932,28.7726373 L34.9815299,28.2477041 L34.9954879,27.6675179 L35,27.0264018 L35,12.9735982 L34.9954879,12.3324821 L34.9815299,11.7522959 L34.9574932,11.2273627 C34.8793946,9.89616489 34.687041,9.09377677 34.3264398,8.33576102 L34.3264398,8.33576102 L34.1832223,8.0526389 C33.6663473,7.08616663 32.9138334,6.33365269 31.9473611,5.81677766 L31.9473611,5.81677766 L31.664239,5.67356015 C30.9062232,5.31295896 30.1038351,5.12060537 28.7726373,5.04250681 L28.7726373,5.04250681 L28.2477041,5.0184701 L27.6675179,5.00451207 C27.4642829,5.00146887 27.2508929,5 27.0264018,5 L27.0264018,5 Z M24.3847103,9.61312021 C25.3434395,10.5706074 24.2205724,13.6810244 21.6413838,16.9763996 C24.2128751,20.2827405 25.3398497,23.427993 24.3847085,24.3847085 C23.4289207,25.341739 20.2690433,24.2129863 16.9565712,21.6388878 C13.6183499,24.2152207 10.411761,25.3421434 9.61536422,24.3824662 C8.82298702,23.4276328 9.82243478,20.2915274 12.3184104,16.9953553 C9.73553944,13.6419151 8.65042039,10.4161316 9.61536422,9.61536422 C10.5750557,8.81895553 13.6715925,9.80030144 16.9594112,12.3113165 L17.0080968,12.2737971 C20.3061226,9.72145417 23.4266268,8.65661606 24.3847103,9.61312021 Z" id="Combined-Shape"></path>
        </g>
    </g>
</svg>